<svg id="레이어_1" data-name="레이어 1" xmlns="http://www.w3.org/2000/svg" viewBox="0 0 87 87"><defs><style>.cls-1{fill:#fff;}</style></defs><rect class="cls-1" width="87" height="87"/><path d="M80.67,87H78V5a2.25,2.25,0,0,0-.66-1.59,2.28,2.28,0,0,0-1.59-.66H11A2.25,2.25,0,0,0,8.7,5V87H6V5A5,5,0,0,1,11,0H75.73a5,5,0,0,1,4.94,5Z"/><path d="M18.22,18.52A3.24,3.24,0,1,0,15,15.28,3.24,3.24,0,0,0,18.22,18.52Z"/><path d="M18.22,30.9A3.24,3.24,0,1,0,15,27.66,3.24,3.24,0,0,0,18.22,30.9Z"/><path d="M18.22,43.28A3.24,3.24,0,1,0,15,40,3.24,3.24,0,0,0,18.22,43.28Z"/><path d="M29.34,17.9a3.29,3.29,0,0,0-2.32.94,3.42,3.42,0,0,0-.71,1.05,3.31,3.31,0,0,0,0,2.5,3.32,3.32,0,0,0,.7,1.06,3,3,0,0,0,1.06.71,3.1,3.1,0,0,0,1.24.26,3.3,3.3,0,0,0,3.28-3.24h0a3.26,3.26,0,0,0-3.22-3.26Zm0,4.72a1.51,1.51,0,0,1-1-.42,1.47,1.47,0,0,1-.32-.46,1.38,1.38,0,0,1-.12-.56,1.54,1.54,0,0,1,.1-.56,1.42,1.42,0,0,1,.31-.48,1.36,1.36,0,0,1,.47-.32,1.38,1.38,0,0,1,.56-.12,1.55,1.55,0,0,1,.56.11,1.37,1.37,0,0,1,.48.31,1.56,1.56,0,0,1,.32.47,1.69,1.69,0,0,1,.12.55h0a1.45,1.45,0,0,1-.42,1,1.48,1.48,0,0,1-1,.45Z"/><path d="M29.34,30.28a3.29,3.29,0,0,0-2.32.94,3.42,3.42,0,0,0-.71,1.05,3.36,3.36,0,0,0-.25,1.25,3.3,3.3,0,0,0,1,2.28,3.27,3.27,0,0,0,5.56-2.3h0a3.24,3.24,0,0,0-3.22-3.25Zm0,4.72a1.55,1.55,0,0,1-.56-.11,1.37,1.37,0,0,1-.48-.31,1.4,1.4,0,0,1-.32-.47,1.3,1.3,0,0,1-.12-.55A1.54,1.54,0,0,1,28,33a1.42,1.42,0,0,1,.31-.48,1.36,1.36,0,0,1,.47-.32,1.38,1.38,0,0,1,.56-.12,1.55,1.55,0,0,1,.56.11,1.37,1.37,0,0,1,.48.31,1.56,1.56,0,0,1,.32.47,1.69,1.69,0,0,1,.12.55h0a1.51,1.51,0,0,1-.44,1,1.46,1.46,0,0,1-1,.42Z"/></svg>