<svg id="Layer_1" data-name="Layer 1" xmlns="http://www.w3.org/2000/svg" viewBox="0 0 113.99 185.87"><title>galaxy-a_advisor_icon-battery_B</title><path d="M21,168H93V42H21Zm86-147.3H81.39V4.19a3.94,3.94,0,0,0-1.11-2.91,4.24,4.24,0,0,0-3-1.28H36.86A4.12,4.12,0,0,0,32.6,4V20.67H6.94A6.88,6.88,0,0,0,0,27.48V179.06a6.88,6.88,0,0,0,6.94,6.8H107.06a6.75,6.75,0,0,0,6.93-6.55V27.48A6.88,6.88,0,0,0,107,20.67ZM107,180H6.94a1,1,0,0,1-1-1V27.48a1,1,0,0,1,1-1h31.6V5.83H75.45V26.51H107a1,1,0,0,1,1,1V179A1,1,0,0,1,107,180Z" transform="translate(0 0)"/></svg>