<?xml version="1.0" encoding="utf-8"?>
<!-- Generator: Adobe Illustrator 25.0.1, SVG Export Plug-In . SVG Version: 6.00 Build 0)  -->
<svg version="1.1" id="Layer_1" xmlns="http://www.w3.org/2000/svg" xmlns:xlink="http://www.w3.org/1999/xlink" x="0px" y="0px"
	 viewBox="0 0 87 87" style="enable-background:new 0 0 87 87;" xml:space="preserve">
<g>
	<path d="M67,87H20C9,87,0,78,0,67V20C0,9,9,0,20,0h47c11,0,20,9,20,20v47C87,78,78,87,67,87z"/>
</g>
<g style="enable-background:new    ;">
	<path style="fill:#FFFFFF;" d="M36.5214844,33.4423828v9.6806641h-1.5913086v-8.0361328l-2.112793,0.7353516l-0.4545898-1.3095703
		l2.78125-1.0703125H36.5214844z"/>
	<path style="fill:#FFFFFF;" d="M44.5966797,41.7324219v1.390625h-6.0161133V41.71875l3.2353516-3.7431641
		c0.4189453-0.4902344,0.7089844-0.8759766,0.8691406-1.1572266c0.1606445-0.2802734,0.2407227-0.5546875,0.2407227-0.8222656
		c0-0.3916016-0.1337891-0.7011719-0.4008789-0.9287109c-0.2675781-0.2275391-0.6333008-0.3408203-1.0966797-0.3408203
		c-0.3652344,0-0.7397461,0.0625-1.1230469,0.1865234c-0.3833008,0.125-0.7485352,0.3037109-1.0961914,0.5351562
		l-0.722168-1.2167969c0.3920898-0.2851562,0.8691406-0.5166016,1.4306641-0.6953125
		c0.5615234-0.1777344,1.1098633-0.2675781,1.6445312-0.2675781c0.5883789,0,1.1074219,0.109375,1.5576172,0.328125
		c0.4501953,0.2177734,0.7978516,0.5234375,1.0424805,0.9160156c0.2451172,0.3916016,0.3681641,0.8466797,0.3681641,1.3632812
		c0,0.4638672-0.1162109,0.9228516-0.3476562,1.3769531c-0.2319336,0.4550781-0.6240234,0.9941406-1.1762695,1.6181641
		l-2.5541992,2.8613281H44.5966797z"/>
	<path style="fill:#FFFFFF;" d="M51.3291016,38.0751953c0.4589844,0.53125,0.6884766,1.2021484,0.6884766,2.0126953
		c0,0.6328125-0.140625,1.1923828-0.4208984,1.6777344c-0.28125,0.4863281-0.6796875,0.8623047-1.1972656,1.1298828
		c-0.5166016,0.2675781-1.1181641,0.4013672-1.8046875,0.4013672c-0.5351562,0-1.0693359-0.078125-1.6044922-0.234375
		c-0.5351562-0.1552734-0.9853516-0.3623047-1.3505859-0.6210938l0.6015625-1.3105469
		c0.3925781,0.2226562,0.7939453,0.3945312,1.2041016,0.5146484c0.4091797,0.1201172,0.7929688,0.1806641,1.1494141,0.1806641
		c0.5703125,0,1.0117188-0.1513672,1.3242188-0.4550781c0.3115234-0.3027344,0.4677734-0.7304688,0.4677734-1.2832031
		c0-0.5166016-0.1494141-0.9228516-0.4482422-1.2167969s-0.7109375-0.4414062-1.2363281-0.4414062
		c-0.2763672,0-0.5664062,0.0361328-0.8691406,0.1074219l-0.6152344-0.7890625l2.7539062-2.9150391h-4.1044922v-1.390625h5.8427734
		v1.390625l-2.2324219,2.2998047C50.2529297,37.2314453,50.8701172,37.5449219,51.3291016,38.0751953z"/>
</g>
<circle style="fill:none;stroke:#FFFFFF;stroke-miterlimit:10;" cx="56.0440521" cy="35.1409683" r="1.6409683"/>
<polyline style="fill:none;stroke:#FFFFFF;stroke-width:1.5;stroke-linecap:round;stroke-linejoin:round;stroke-miterlimit:10;" points="
	9,41 44,60 77,41 "/>
<path style="fill:none;stroke:#FFFFFF;stroke-width:1.5;stroke-linecap:round;stroke-linejoin:round;stroke-miterlimit:10;" d="
	M33,54c3.0539551-3.7892113,6.4350815-6,11-6c4.3185005,0,8.2609062,2.0838509,11.2595558,5.5169296"/>
</svg>
